<?xml version="1.0" encoding="UTF-8" standalone="no"?>
<svg
   viewBox="0 0 280 203.1258763368993"
   height="3627.247791730345"
   width="5000"
   style="width: 280px; height: 203.126px; position: absolute; top: 50%; left: 50%; transform: translate(-50%, -50%) scale(0.488571); z-index: 0; cursor: pointer;"
   version="1.1"
   id="svg18"
   sodipodi:docname="LOGO.svg"
   inkscape:version="1.1.1 (3bf5ae0d25, 2021-09-20)"
   xmlns:inkscape="http://www.inkscape.org/namespaces/inkscape"
   xmlns:sodipodi="http://sodipodi.sourceforge.net/DTD/sodipodi-0.dtd"
   xmlns="http://www.w3.org/2000/svg"
   xmlns:svg="http://www.w3.org/2000/svg">
  <sodipodi:namedview
     id="namedview20"
     pagecolor="#ffffff"
     bordercolor="#666666"
     borderopacity="1.0"
     inkscape:pageshadow="2"
     inkscape:pageopacity="0.0"
     inkscape:pagecheckerboard="0"
     showgrid="false"
     inkscape:zoom="0.22627417"
     inkscape:cx="2388.6951"
     inkscape:cy="2340.0815"
     inkscape:window-width="1920"
     inkscape:window-height="1017"
     inkscape:window-x="-8"
     inkscape:window-y="-8"
     inkscape:window-maximized="1"
     inkscape:current-layer="svg18" />
  <defs
     id="SvgjsDefs1491" />
  <g
     id="SvgjsG1492"
     featurekey="mugSzh-0"
     transform="matrix(4.938523881971882,0,0,4.938523881971882,-106.42372619305922,-196.918703982559)"
     fill="#39E991">
    <g
       fill="#39E991"
       id="g5">
      <polygon
         points="37.876,59.597 35.319,57.04 42.625,49.734 35.319,42.431 37.876,39.874 47.738,49.734  "
         fill="#39E991"
         id="polygon3" />
    </g>
    <g
       fill="#39E991"
       id="g9">
      <rect
         x="48.182"
         y="56.51"
         width="16.498"
         height="3.617"
         fill="#39E991"
         id="rect7" />
    </g>
  </g>
  <g
     id="SvgjsG1493"
     featurekey="PPkF4s-0"
     transform="matrix(3.9988576610097057,0,0,3.9988576610097057,-0.8797497532323322,98.48614532613485)"
     fill="#FFFFFF">
    <path
       style="fill:#ff6a00
"
       d="M 66,8.12 V 20 H 62.82 V 8.12 H 58.56 V 5.38 h 11.68 v 2.74 z"
       id="path3739" />
    <path
       style="fill:#ff6a00
"
       d="M 53.38,20 V 5.38 h 3.16 V 20 Z"
       id="path3737" />
    <path
       style="fill:#0094ff
"
       d="m 42.34,16.08 q 0,0.7 0.24,1.17 0.24,0.47 1.12,0.47 0.4,0 0.76,-0.04 v 2.52 q -0.72,0.08 -1.34,0.08 -1.28,0 -2.07,-0.21 -0.79,-0.21 -1.23,-0.81 -0.44,-0.6 -0.44,-1.72 v -6.1 H 38.04 V 8.82 h 1.34 V 5.88 h 2.96 v 2.94 h 2.2 v 2.62 h -2.2 z"
       id="path3735" />
    <path
       style="fill:#0094ff
"
       d="m 26.58,18.54 1.56,-2.08 q 0.72,0.5 1.68,0.84 0.96,0.34 1.88,0.34 0.68,0 1.13,-0.28 0.45,-0.28 0.45,-0.7 0,-0.42 -0.51,-0.59 -0.51,-0.17 -0.99,-0.24 -0.48,-0.07 -0.62,-0.09 -1.2,-0.2 -2.07,-0.48 -0.87,-0.28 -1.58,-1 -0.71,-0.72 -0.71,-1.98 0,-2.08 1.51,-2.78 1.51,-0.7 3.03,-0.7 1.3,0 2.4,0.38 1.1,0.38 2.18,1.2 l -1.56,2.04 q -0.78,-0.46 -1.54,-0.74 -0.76,-0.28 -1.58,-0.28 -0.5,0 -0.97,0.22 -0.47,0.22 -0.47,0.6 0,0.48 0.65,0.68 0.65,0.2 1.43,0.3 1.4,0.24 2.24,0.5 0.84,0.26 1.49,0.97 0.65,0.71 0.65,2.01 0,1.72 -1.18,2.65 -1.18,0.93 -3.34,0.93 -3,0 -5.16,-1.72 z"
       id="path3733" />
    <path
       style="fill:#0094ff
"
       d="m 14.02,15.54 v -6.5 h 3.02 v 6.5 q 0,1.18 0.59,1.69 0.59,0.51 1.55,0.51 0.84,0 1.5,-0.65 0.66,-0.65 0.6,-2.23 V 9.04 h 3 V 20 h -3 v -0.94 q -0.54,0.56 -1.31,0.87 -0.77,0.31 -1.63,0.31 -4.32,0 -4.32,-4.7 z"
       id="path3731" />
    <path
       style="fill:#0094ff
"
       d="m 11.04,14.76 q 0,1.7 -0.71,2.94 -0.71,1.24 -1.99,1.91 -1.28,0.67 -2.98,0.67 -1.76,0 -3.1,-0.84 Q 0.92,18.6 0.22,17.08 L 3.1,15.86 q 0.32,0.68 0.87,1.15 0.55,0.47 1.39,0.47 1.46,0 1.98,-0.82 0.52,-0.82 0.52,-1.9 V 5.4 h 3.18 z"
       id="path12" />
  </g>
</svg>
